<svg xmlns="http://www.w3.org/2000/svg" width="107" height="33" fill="none"><path fill="#fff" d="M.502 6h6.44l4.88 16.88L17.022 6h6.2l5.24 16.88L33.302 6h6.44l-8.28 26h-5.84l-5.48-17-5.52 17h-5.84L.502 6zm42.039 3.44h6.24V32h-6.24V9.44zm0-9.44h6.24v5.6h-6.24V0zm11.016 26.4 13.92-14.8h-13.12V6h21.2v5.6l-14 14.8h14.4V32h-22.4v-5.6zm38.95 6.04c-2.587 0-4.907-.56-6.96-1.68a12.093 12.093 0 0 1-4.76-4.72c-1.12-2.027-1.68-4.347-1.68-6.96 0-2.64.573-4.987 1.72-7.04C82 9.987 83.613 8.4 85.667 7.28c2.053-1.147 4.386-1.72 7-1.72 2.906 0 5.44.693 7.6 2.08 2.16 1.387 3.76 3.267 4.8 5.64 1.066 2.347 1.44 4.933 1.12 7.76h-20.6c.16 1.173.573 2.213 1.24 3.12a6.723 6.723 0 0 0 2.52 2.04c1.013.48 2.093.72 3.24.72a7.7 7.7 0 0 0 3.92-1.04 6.46 6.46 0 0 0 2.68-2.92h6.56c-.907 2.933-2.52 5.253-4.84 6.96-2.294 1.68-5.094 2.52-8.4 2.52zm7-16.24a7.026 7.026 0 0 0-1.44-2.72 6.607 6.607 0 0 0-2.36-1.76 6.863 6.863 0 0 0-2.96-.64 7.224 7.224 0 0 0-3.04.64 6.61 6.61 0 0 0-2.36 1.76c-.667.773-1.16 1.693-1.48 2.76l13.64-.04z"/></svg>