<svg xmlns="http://www.w3.org/2000/svg" xmlns:xlink="http://www.w3.org/1999/xlink" viewBox="0 0 110 27"><path d="M 108.658 18.247 C 108.317 18.005 108.048 17.971 107.824 18.432 C 103.999 26.557 97.556 22.501 98.201 22.857 C 99.633 22.212 103.389 19.261 102.825 15.17 C 102.485 12.669 100.302 11.563 97.979 11.966 C 93.93 12.658 92.451 16.945 93.202 20.737 C 93.331 21.394 93.566 21.924 93.812 22.454 C 89.248 26.107 87.429 19.193 87.217 18.363 C 87.206 18.317 90.75 15.424 91.736 8.52 C 92.768 1.294 90.421 -0.032 88.015 0.014 C 83.568 0.095 82.37 9.212 83.978 16.806 C 83.849 16.841 83.216 17.187 82.207 17.221 C 81.479 14.974 78.369 13.003 77.559 13.764 C 75.529 15.666 78.052 19.376 79.836 19.665 C 78.767 26.13 72.079 24.529 73.323 16.426 C 75.494 12.461 77.16 6.549 76.855 2.987 C 76.749 1.731 75.798 0.037 73.651 0.118 C 69.52 0.279 69.075 9.396 69.555 15.873 C 69.532 15.712 69.297 16.657 67.607 17.129 C 67.208 14.951 63.629 12.75 62.785 13.81 C 61.211 15.781 63.946 19.297 65.237 19.538 C 64.169 26.004 57.48 24.402 58.723 16.3 C 60.907 12.335 62.561 6.434 62.268 2.873 C 62.163 1.616 61.211 -0.078 59.064 0.003 C 54.933 0.164 54.487 9.281 54.968 15.757 C 54.945 15.596 54.71 16.576 52.949 17.037 C 52.892 14.202 49.3 12.911 48.432 13.81 C 46.894 15.424 48.784 18.732 50.533 19.538 C 49.465 26.004 42.775 24.402 44.019 16.3 C 46.19 12.335 47.857 6.422 47.552 2.861 C 47.458 1.616 46.507 -0.078 44.359 0.003 C 40.229 0.164 39.9 9.741 40.382 16.218 C 39.02 21.947 34.455 29.093 35.053 14.767 C 35.112 13.764 35.171 13.383 34.666 13.003 C 34.279 12.716 33.411 12.853 32.941 12.865 C 32.366 12.889 32.214 13.222 32.097 13.718 C 31.803 15.009 31.744 16.265 31.697 17.982 C 31.674 18.789 31.604 19.158 31.286 20.253 C 30.969 21.348 29.186 23.341 28.2 23.007 C 26.839 22.546 27.284 18.778 27.543 16.184 C 27.754 14.133 27.074 13.223 25.337 12.888 C 24.316 12.681 23.694 12.716 22.638 12.381 C 21.628 12.07 21.405 10.202 19.27 10.825 C 18.096 11.171 18.847 13.602 18.565 15.412 C 17.181 24.298 14.306 24.54 12.967 20.229 C 18.976 5.754 14.693 0.049 12.193 0.049 C 9.588 0.049 6.607 1.812 7.862 13.107 C 7.253 12.935 7.065 12.842 6.384 12.842 C 2.594 12.83 0 15.85 0 19.572 C 0 23.295 2.594 26.315 6.396 26.315 C 8.637 26.315 10.21 25.313 11.407 23.768 C 12.182 24.863 13.132 26.338 14.869 26.269 C 20.032 26.073 21.534 15.666 21.711 15.078 C 22.262 15.159 22.79 15.32 23.295 15.401 C 24.14 15.528 24.21 15.862 24.186 16.691 C 23.964 23.768 25.289 26.246 28.306 26.246 C 29.984 26.246 31.486 24.621 32.518 23.468 C 33.293 25.036 34.513 26.199 36.168 26.246 C 40.158 26.338 41.696 20.091 41.555 20.91 C 41.449 21.555 42.846 26.199 46.965 26.222 C 52.058 26.246 53.008 20.748 53.114 19.826 C 53.137 19.665 53.126 19.642 53.114 19.826 L 53.114 19.884 C 54.734 19.584 55.567 18.743 55.567 18.743 C 55.567 18.743 56.869 26.315 61.67 26.234 C 66.657 26.142 67.607 21.175 67.725 20.206 C 67.748 19.999 67.736 19.976 67.725 20.206 L 67.725 20.229 C 69.65 19.538 70.154 18.858 70.154 18.858 C 70.154 18.858 71.187 26.281 76.256 26.349 C 80.775 26.407 82.452 21.855 82.465 19.953 C 83.227 19.964 84.636 19.503 84.6 19.481 C 84.6 19.481 86.255 25.97 90.879 26.303 C 93.05 26.465 94.681 25.105 95.608 24.483 C 97.791 26.222 105.055 28.436 109.643 20.794 C 110.301 19.711 108.904 18.409 108.658 18.247 Z M 6.208 23.791 C 3.99 23.791 2.57 21.774 2.57 19.607 C 2.57 17.44 3.872 15.423 6.091 15.423 C 7.088 15.423 7.64 15.527 8.426 16.195 C 8.566 16.737 8.966 17.994 9.165 18.569 C 9.423 19.33 9.74 19.987 10.045 20.691 C 9.588 22.511 8.133 23.791 6.208 23.791 Z M 11.606 16.253 C 11.512 16.103 11.536 16.195 11.431 16.057 C 11.031 14.974 10.245 12.553 10.151 9.799 C 10.045 6.687 10.574 3.034 12.134 3.034 C 13.191 3.034 14.317 10.433 11.606 16.253 Z M 42.834 13.014 C 42.588 11.171 42.576 2.93 44.582 3.16 C 45.697 3.598 43.879 11.367 42.834 13.014 Z M 57.538 13.014 C 57.292 11.171 57.28 2.93 59.288 3.16 C 60.402 3.598 58.583 11.367 57.538 13.014 Z M 72.126 13.13 C 71.879 11.286 71.868 3.045 73.874 3.276 C 74.988 3.702 73.17 11.482 72.126 13.13 Z M 88.226 2.665 C 90.069 2.48 89.987 10.375 86.302 15.354 C 85.82 13.556 85.093 3.287 88.226 2.665 Z M 95.972 19.665 C 95.385 16.726 96.911 14.801 98.483 14.594 C 99.035 14.513 99.833 14.858 99.985 15.516 C 100.243 16.749 99.95 18.581 96.418 20.898 C 96.429 20.91 96.101 20.31 95.972 19.665 Z M 33.551 10.606 C 34.807 10.606 35.828 9.603 35.828 8.37 C 35.828 7.137 34.807 6.135 33.551 6.135 C 32.296 6.135 31.274 7.137 31.274 8.37 C 31.274 9.603 32.296 10.606 33.551 10.606 Z" fill="hsl(0, 0%, 100%)"></path></svg>