<svg xmlns="http://www.w3.org/2000/svg" xmlns:xlink="http://www.w3.org/1999/xlink" viewBox="0 0 154.875 28.976"><path d="M 53.433 20.651 L 53.433 10.992 L 53.391 10.992 L 50.425 20.651 L 47.355 20.651 L 44.388 10.992 L 44.347 10.992 L 44.347 20.651 L 41.234 20.651 L 41.234 8.077 L 46.415 8.077 L 48.879 16.654 L 48.921 16.654 L 51.366 8.057 L 56.546 8.057 L 56.546 20.63 L 53.433 20.63 Z M 67.805 15.717 C 67.805 16.03 67.784 16.612 67.784 16.612 L 61.1 16.612 C 61.162 17.591 61.956 18.257 63.23 18.257 C 64.526 18.257 65.402 17.758 66.009 17.278 L 66.154 17.278 L 67.115 19.756 C 66.51 20.234 65.131 20.859 63.292 20.859 C 60.326 20.859 58.196 18.965 58.196 15.676 C 58.196 12.428 60.326 10.367 63.105 10.367 C 65.925 10.367 67.805 12.532 67.805 15.717 Z M 61.204 14.469 L 65.068 14.469 C 64.985 13.677 64.274 12.907 63.147 12.907 C 61.998 12.907 61.329 13.657 61.204 14.469 Z M 77.267 11.928 L 76.202 14.281 L 76.055 14.281 C 75.199 13.344 74.008 12.865 73.089 12.865 C 72.317 12.865 72.024 13.198 72.024 13.532 C 72.024 13.969 72.191 14.031 74.343 14.552 C 76.348 15.03 77.664 15.801 77.664 17.737 C 77.664 19.756 76.244 20.859 73.779 20.859 C 71.335 20.859 69.58 19.943 68.891 19.215 L 70.019 16.696 L 70.165 16.696 C 71.042 17.424 72.128 18.132 73.674 18.132 C 74.594 18.132 74.761 17.883 74.761 17.549 C 74.761 17.217 74.572 17.029 72.4 16.488 C 70.061 15.905 69.162 14.968 69.162 13.448 C 69.162 11.554 70.688 10.347 72.965 10.347 C 75.136 10.367 76.808 11.387 77.267 11.928 Z M 86.938 11.928 L 85.873 14.281 L 85.728 14.281 C 84.871 13.344 83.68 12.865 82.761 12.865 C 81.988 12.865 81.695 13.198 81.695 13.532 C 81.695 13.969 81.863 14.031 84.015 14.552 C 86.02 15.03 87.335 15.801 87.335 17.737 C 87.335 19.756 85.915 20.859 83.451 20.859 C 81.006 20.859 79.252 19.943 78.562 19.215 L 79.691 16.696 L 79.837 16.696 C 80.714 17.424 81.8 18.132 83.346 18.132 C 84.265 18.132 84.432 17.883 84.432 17.549 C 84.432 17.217 84.245 17.029 82.072 16.488 C 79.732 15.905 78.834 14.968 78.834 13.448 C 78.834 11.554 80.359 10.347 82.636 10.347 C 84.829 10.367 86.5 11.387 86.938 11.928 Z M 96.673 14.239 L 96.673 20.651 L 94.313 20.651 L 94.062 19.319 L 93.999 19.319 C 93.519 20.173 92.516 20.859 91.095 20.859 C 89.153 20.859 88.15 19.61 88.15 17.966 C 88.15 16.321 88.902 15.28 91.263 14.822 C 93.623 14.364 93.79 14.198 93.79 13.698 C 93.79 13.22 93.331 12.949 92.391 12.949 C 91.368 12.949 90.219 13.677 89.592 14.614 L 89.445 14.614 L 88.255 12.179 C 89.362 11.096 90.782 10.367 92.578 10.367 C 94.855 10.367 96.673 11.845 96.673 14.239 Z M 93.79 16.196 C 93.623 16.467 93.31 16.654 92.244 16.904 C 91.221 17.154 91.075 17.445 91.075 17.841 C 91.075 18.236 91.409 18.424 91.931 18.424 C 92.767 18.424 93.832 17.883 93.832 17.071 L 93.832 16.196 Z M 105.091 11.908 L 105.154 11.908 L 105.321 10.575 L 107.661 10.575 L 107.661 19.361 C 107.661 22.463 105.906 24.17 102.71 24.17 C 100.892 24.17 99.493 23.565 98.636 22.941 L 99.534 20.38 L 99.681 20.38 C 100.538 21.068 101.457 21.484 102.605 21.484 C 104.131 21.484 104.673 20.88 104.673 19.527 L 104.673 18.611 L 104.61 18.611 C 104.172 19.256 103.316 19.798 102.021 19.798 C 99.618 19.798 97.947 17.924 97.947 15.259 C 97.947 12.345 99.931 10.347 102.271 10.347 C 103.691 10.367 104.673 11.2 105.091 11.908 Z M 101.018 15.176 C 101.018 16.405 101.791 17.175 102.96 17.175 C 104.088 17.175 104.861 16.467 104.861 15.155 C 104.861 13.906 104.193 13.011 102.96 13.011 C 101.687 13.011 101.018 13.947 101.018 15.176 Z M 118.731 15.717 C 118.731 16.03 118.711 16.612 118.711 16.612 L 112.026 16.612 C 112.089 17.591 112.883 18.257 114.157 18.257 C 115.452 18.257 116.33 17.758 116.935 17.278 L 117.081 17.278 L 118.021 19.777 C 117.416 20.256 116.037 20.88 114.199 20.88 C 111.232 20.88 109.101 18.986 109.101 15.696 C 109.101 12.449 111.232 10.388 114.01 10.388 C 116.851 10.367 118.731 12.532 118.731 15.717 Z M 112.13 14.469 L 115.995 14.469 C 115.912 13.677 115.201 12.907 114.073 12.907 C 112.945 12.907 112.256 13.657 112.13 14.469 Z M 127.108 8.077 C 129.594 8.077 130.93 9.284 130.93 11.304 C 130.93 12.74 130.262 13.635 128.946 14.198 L 128.946 14.239 C 130.136 14.698 130.93 15.676 130.93 17.3 C 130.93 18.924 130.011 20.651 126.648 20.651 L 120.34 20.651 L 120.34 8.077 Z M 123.536 13.198 L 126.543 13.198 C 127.296 13.198 127.714 12.761 127.714 12.116 C 127.714 11.491 127.38 10.992 126.439 10.992 L 123.536 10.992 Z M 123.536 17.737 L 126.543 17.737 C 127.296 17.737 127.714 17.3 127.714 16.634 C 127.714 15.967 127.38 15.468 126.439 15.468 L 123.536 15.468 Z M 135.86 7.516 C 135.86 8.598 135.192 9.389 133.98 9.389 C 132.769 9.389 132.1 8.598 132.1 7.516 C 132.1 6.412 132.769 5.683 133.98 5.683 C 135.192 5.683 135.86 6.412 135.86 7.516 Z M 132.476 20.651 L 132.476 10.575 L 135.442 10.575 L 135.442 20.63 L 132.476 20.63 Z M 144.215 11.2 L 143.777 13.906 L 143.631 13.906 C 143.28 13.517 142.777 13.297 142.252 13.303 C 141.062 13.303 140.372 14.385 140.372 16.196 L 140.372 20.651 L 137.406 20.651 L 137.406 10.575 L 139.85 10.575 L 140.017 11.908 L 140.08 11.908 C 140.623 10.825 141.459 10.367 142.377 10.367 C 143.088 10.367 143.84 10.638 144.215 11.2 Z M 152.216 20.651 L 151.965 19.319 L 151.902 19.319 C 151.318 20.234 150.441 20.859 148.832 20.859 C 146.117 20.859 144.404 18.695 144.404 15.759 C 144.404 12.74 146.2 10.367 148.916 10.367 C 150.106 10.367 151.088 10.825 151.652 11.616 L 151.694 11.616 L 151.694 7.307 L 154.576 7.307 L 154.576 20.651 Z M 147.37 15.634 C 147.37 17.154 148.247 18.112 149.563 18.112 C 150.879 18.112 151.777 17.258 151.777 15.613 C 151.777 14.093 150.9 13.011 149.605 13.011 C 148.309 13.011 147.37 14.115 147.37 15.634 Z M 30.832 5.142 C 29.497 5.146 28.245 5.789 27.469 6.87 L 22.393 13.947 C 22.138 14.313 21.674 14.471 21.248 14.338 C 20.822 14.204 20.532 13.81 20.534 13.365 C 20.534 13.157 20.597 12.949 20.701 12.803 L 24.983 6.412 C 25.438 5.734 25.678 4.937 25.672 4.122 C 25.674 3.035 25.242 1.991 24.47 1.221 C 23.697 0.452 22.649 0.02 21.557 0.021 L 0 0.021 L 0 4.122 L 18.466 4.122 C 18.463 5.259 17.539 6.18 16.397 6.183 L 0 6.183 C 0 7.64 0.313 9.035 0.856 10.284 L 14.33 10.284 C 14.328 11.421 13.403 12.342 12.262 12.345 L 2.068 12.345 C 4.011 14.935 7.072 16.456 10.319 16.446 L 15.395 16.446 C 15.945 16.468 16.379 16.918 16.379 17.466 C 16.379 18.014 15.945 18.464 15.395 18.486 L 10.298 18.486 L 3.405 28.749 L 15.875 28.749 C 21.578 28.749 26.424 25.043 28.117 19.922 L 30.435 12.907 C 31.186 10.656 32.545 8.653 34.362 7.119 C 33.618 5.887 32.277 5.135 30.832 5.142 Z M 30.832 7.952 C 30.408 7.945 30.065 7.604 30.059 7.182 C 30.065 6.76 30.408 6.419 30.832 6.412 C 31.25 6.412 31.604 6.765 31.604 7.182 C 31.606 7.386 31.525 7.583 31.379 7.727 C 31.234 7.872 31.037 7.953 30.832 7.952 Z" fill="hsl(0, 0%, 100%)"></path></svg>