<svg xmlns="http://www.w3.org/2000/svg" xmlns:xlink="http://www.w3.org/1999/xlink" viewBox="0 0 95.875 25.756"><path d="M 6.216 0.636 C 10.464 3.989 14.052 8.038 16.825 12.593 L 19.609 9.96 C 20.945 8.714 22.514 7.744 24.226 7.107 C 23.446 4.575 22.382 2.473 20.638 0.39 C 20.533 0.265 20.403 0.165 20.253 0.1 C 20.103 0.035 19.938 0 19.773 0 L 6.456 0 C 6.376 0 6.301 0.025 6.241 0.065 C 6.181 0.105 6.131 0.17 6.101 0.24 C 6.071 0.31 6.071 0.385 6.091 0.455 C 6.111 0.526 6.156 0.591 6.216 0.636 Z M 14.102 16.748 C 16.141 17.578 18.219 18.319 20.358 18.87 C 24.176 19.856 27.794 18.439 29.583 15.171 L 31.746 11.042 C 32.226 10.035 32.846 9.095 33.58 8.244 C 31.473 7.506 29.206 7.354 27.019 7.803 C 24.83 8.254 22.822 9.29 21.228 10.786 L 17.92 13.915 C 16.755 15.021 15.486 15.902 14.102 16.748 Z M 0.64 8.674 C 0.585 8.625 0.517 8.592 0.445 8.579 C 0.372 8.567 0.298 8.576 0.23 8.604 C 0.16 8.629 0.105 8.679 0.065 8.734 C 0.025 8.794 0 8.864 0 8.934 L 0 21.402 C 0 21.573 0.045 21.743 0.13 21.898 C 0.215 22.048 0.34 22.178 0.485 22.278 C 3.893 24.441 6.821 25.622 10.909 25.677 C 15.001 25.732 19.019 24.661 22.492 22.589 C 23.771 21.828 24.021 21.502 25.09 20.511 C 23.126 21.022 21.328 20.877 19.419 20.386 C 11.388 18.304 6.496 14.095 0.64 8.674 Z M 67.356 9.585 C 66.351 8.764 64.907 8.354 63.028 8.354 C 61.149 8.354 59.265 8.739 57.356 10.321 C 57.262 10.401 57.257 10.541 57.341 10.626 L 59.065 12.353 C 59.135 12.423 59.24 12.433 59.32 12.383 C 60.814 11.482 61.794 11.197 62.878 11.197 C 64.332 11.197 65.062 11.907 65.062 13.334 L 65.062 13.95 L 62.628 14.025 C 60.53 14.1 58.961 14.49 57.916 15.201 C 56.877 15.907 56.352 17.008 56.352 18.499 C 56.352 19.991 56.737 21.022 57.511 21.793 C 58.286 22.564 59.345 22.949 60.695 22.949 C 61.789 22.949 62.678 22.794 63.363 22.478 C 63.943 22.213 64.512 21.763 65.062 21.132 L 65.062 22.489 C 65.062 22.604 65.157 22.699 65.272 22.699 L 68.66 22.699 C 68.775 22.699 68.87 22.604 68.87 22.489 L 68.87 13.334 C 68.87 11.657 68.37 10.411 67.366 9.59 Z M 64.262 19.375 C 63.733 19.886 63.023 20.141 62.134 20.141 C 60.894 20.141 60.275 19.6 60.275 18.519 C 60.275 17.764 60.545 17.203 61.089 16.838 C 61.634 16.467 62.463 16.267 63.573 16.232 L 65.052 16.182 L 65.052 17.338 C 65.052 18.184 64.787 18.865 64.257 19.375 Z M 95.859 22.363 L 91.157 15.641 L 91.157 15.631 L 95.609 8.904 C 95.651 8.84 95.654 8.758 95.618 8.69 C 95.581 8.622 95.511 8.58 95.434 8.579 L 91.502 8.579 C 91.292 8.579 91.097 8.684 90.982 8.859 L 87.104 14.715 L 87.104 3.278 C 87.104 3.163 87.009 3.068 86.894 3.068 L 83.496 3.068 C 83.381 3.068 83.286 3.163 83.286 3.278 L 83.286 22.483 C 83.286 22.599 83.381 22.694 83.496 22.694 L 86.894 22.694 C 87.009 22.694 87.104 22.599 87.104 22.483 L 87.104 16.507 L 91.242 22.428 C 91.357 22.594 91.552 22.694 91.756 22.694 L 95.689 22.694 C 95.859 22.694 95.959 22.504 95.859 22.363 Z M 54.078 22.694 L 42.495 22.694 C 42.01 22.694 41.621 22.303 41.621 21.818 L 41.621 3.288 C 41.621 3.168 41.721 3.068 41.841 3.068 L 45.264 3.068 C 45.383 3.068 45.483 3.168 45.483 3.288 L 45.483 18.83 L 54.083 18.83 C 54.203 18.83 54.303 18.93 54.303 19.05 L 54.303 22.478 C 54.303 22.599 54.203 22.699 54.083 22.699 Z M 81.153 8.549 C 78.269 7.993 76.345 8.979 75.166 10.576 L 75.166 8.839 C 75.166 8.724 75.071 8.629 74.956 8.629 L 71.568 8.629 C 71.453 8.629 71.358 8.724 71.358 8.839 L 71.358 22.489 C 71.358 22.604 71.453 22.699 71.568 22.699 L 74.956 22.699 C 75.071 22.699 75.166 22.604 75.166 22.489 L 75.166 15.021 C 75.166 14.745 75.196 14.47 75.271 14.205 C 75.901 11.952 78.769 11.457 81.073 11.912 C 81.203 11.937 81.322 11.837 81.322 11.707 L 81.322 8.754 C 81.322 8.654 81.253 8.569 81.158 8.549 Z" fill="hsl(0, 0%, 100%)"></path></svg>