<svg xmlns="http://www.w3.org/2000/svg" xmlns:xlink="http://www.w3.org/1999/xlink" viewBox="0 0 140.586 16.558"><path d="M 11.097 8.662 L 2.274 8.662 L 2.274 16.089 L 0 16.089 L 0 0.343 L 2.275 0.343 L 2.275 6.514 L 11.097 6.514 L 11.097 0.343 L 13.372 0.343 L 13.372 16.112 L 11.097 16.112 Z M 27.432 0.114 C 31.935 0.114 35.359 3.611 35.359 8.227 C 35.359 12.821 31.912 16.34 27.432 16.34 C 22.952 16.34 19.506 12.844 19.506 8.227 C 19.529 3.611 22.975 0.114 27.432 0.114 Z M 27.432 14.169 C 30.672 14.169 33.107 11.61 33.107 8.182 C 33.107 4.754 30.695 2.194 27.432 2.194 C 24.17 2.194 21.757 4.754 21.757 8.182 C 21.803 11.655 24.216 14.169 27.432 14.169 Z M 42.711 16.112 L 42.711 0.343 L 47.466 0.343 C 49.971 0.343 51.602 0.891 52.889 1.828 C 54.842 3.268 56.059 5.599 56.059 8.25 C 56.059 10.856 54.841 13.232 52.889 14.672 C 51.602 15.609 49.948 16.158 47.42 16.158 L 42.711 16.158 Z M 51.878 3.794 C 50.867 2.948 49.58 2.468 47.352 2.468 L 44.962 2.468 L 44.962 13.964 L 47.352 13.964 C 49.58 13.964 50.867 13.507 51.878 12.638 C 53.095 11.587 53.785 9.987 53.785 8.205 C 53.808 6.445 53.095 4.845 51.878 3.794 Z M 63.365 0.343 L 65.64 0.343 L 65.64 16.112 L 63.365 16.112 Z M 76.254 4.525 L 76.254 16.112 L 73.98 16.112 L 73.98 0.343 L 75.588 0.343 L 85.123 11.93 L 85.123 0.343 L 87.397 0.343 L 87.397 16.112 L 85.789 16.112 L 76.254 4.525 Z M 95.714 0.343 L 97.989 0.343 L 97.989 6.993 L 104.513 0.343 L 107.523 0.343 L 100.378 7.656 L 108.005 16.089 L 105.111 16.089 L 98.034 8.205 L 98.034 16.089 L 95.737 16.089 L 95.737 0.343 Z M 122.09 6.514 L 122.09 8.662 L 116.897 8.662 L 116.897 13.941 L 123.927 13.941 L 123.927 16.089 L 114.622 16.089 L 114.622 0.343 L 123.698 0.343 L 123.698 2.491 L 116.897 2.491 L 116.897 6.536 L 122.09 6.536 L 122.09 6.513 Z M 138.77 6.514 L 138.77 8.662 L 133.577 8.662 L 133.577 13.941 L 140.607 13.941 L 140.607 16.089 L 131.302 16.089 L 131.302 0.343 L 140.378 0.343 L 140.378 2.491 L 133.577 2.491 L 133.577 6.536 L 138.77 6.536 L 138.77 6.513 Z" fill="hsl(0, 0%, 100%)"></path></svg>