<svg xmlns="http://www.w3.org/2000/svg" xmlns:xlink="http://www.w3.org/1999/xlink" viewBox="0 0 147.961 28.976"><path d="M 115.806 10.123 L 112.302 10.123 L 112.302 22.379 L 115.806 22.379 Z M 115.806 6.084 L 112.302 6.084 L 112.302 8.794 L 115.806 8.794 Z M 39.378 6.084 L 35.715 6.084 L 35.715 22.379 L 46.9 22.379 L 46.9 19.255 L 39.378 19.255 Z M 54.139 9.104 C 50.24 9.104 47.154 12.097 47.154 15.87 C 47.154 19.643 50.24 22.645 54.139 22.645 C 58.038 22.645 61.15 19.651 61.15 15.876 C 61.15 12.101 58.062 9.104 54.139 9.104 Z M 54.139 19.41 C 52.177 19.41 50.712 17.927 50.712 15.86 C 50.712 13.793 52.177 12.322 54.139 12.322 C 56.102 12.322 57.566 13.831 57.566 15.86 C 57.566 17.89 56.102 19.41 54.139 19.41 Z M 75.848 19.619 C 75.219 19.619 74.67 19.255 74.67 18.136 L 74.67 12.932 L 78.012 12.932 L 78.012 10.123 L 74.67 10.123 L 74.67 6.591 L 71.166 6.591 L 71.166 10.123 L 66.564 10.123 L 66.564 6.591 L 63.059 6.591 L 63.059 10.123 L 61.15 10.123 L 61.15 12.932 L 63.059 12.932 L 63.059 18.188 C 63.059 21.129 64.472 22.639 67.086 22.639 C 68.267 22.642 69.422 22.299 70.409 21.653 L 69.418 19.077 C 68.922 19.411 68.341 19.6 67.743 19.623 C 67.114 19.623 66.565 19.259 66.565 18.14 L 66.565 12.932 L 71.168 12.932 L 71.168 18.188 C 71.168 21.129 72.579 22.639 75.195 22.639 C 76.376 22.641 77.531 22.298 78.518 21.653 L 77.527 19.077 C 77.029 19.411 76.447 19.599 75.848 19.619 Z M 98.004 14.954 C 97.469 11.295 94.264 8.707 90.741 9.218 C 88.953 9.461 87.338 10.411 86.26 11.853 C 85.183 13.295 84.735 15.109 85.017 16.884 C 85.637 21.134 89.311 23.102 93.089 22.554 C 94.8 22.315 96.402 21.581 97.697 20.442 L 96.04 18.156 C 95.094 18.97 93.932 19.494 92.694 19.667 C 90.985 19.913 89.386 19.273 88.712 17.561 L 98.108 16.2 C 98.096 15.783 98.062 15.367 98.004 14.954 Z M 88.324 15.275 C 88.422 13.604 89.56 12.334 91.061 12.119 C 92.638 11.875 94.151 12.835 94.595 14.362 Z M 136.048 14.954 C 135.513 11.295 132.306 8.707 128.786 9.218 C 126.997 9.461 125.381 10.41 124.304 11.853 C 123.227 13.295 122.779 15.109 123.061 16.884 C 123.682 21.134 127.352 23.102 131.132 22.554 C 132.843 22.315 134.445 21.581 135.739 20.442 L 134.084 18.156 C 133.137 18.97 131.975 19.494 130.736 19.667 C 129.027 19.913 127.428 19.273 126.753 17.561 L 136.151 16.2 C 136.139 15.783 136.105 15.367 136.048 14.954 Z M 126.367 15.275 C 126.467 13.604 127.602 12.334 129.105 12.119 C 130.68 11.874 132.192 12.836 132.631 14.362 Z M 121.561 6.084 L 118.057 6.084 L 118.057 22.377 L 121.561 22.377 Z M 143.305 14.232 C 142.102 13.971 141.004 13.737 141.004 13.009 C 141.004 12.463 141.763 12.097 142.573 12.097 C 143.84 12.117 145.084 12.429 146.209 13.009 L 147.386 10.405 C 145.924 9.515 144.234 9.063 142.52 9.104 C 140.062 9.104 137.445 10.51 137.445 13.164 C 137.445 15.663 139.564 16.517 142.155 17.198 C 143.279 17.511 144.406 17.692 144.406 18.474 C 144.406 19.255 143.071 19.567 142.258 19.567 C 140.778 19.595 139.335 19.107 138.179 18.186 L 136.923 20.87 C 137.656 21.546 139.459 22.645 142.258 22.645 C 144.693 22.645 147.961 21.578 147.961 18.375 C 147.961 15.715 145.537 14.756 143.305 14.232 Z M 83.432 10.123 L 79.927 10.123 L 79.927 22.379 L 83.432 22.379 Z M 83.432 6.084 L 79.927 6.084 L 79.927 8.794 L 83.432 8.794 Z M 99.497 22.379 L 103.152 22.379 L 103.152 15.72 L 109.35 15.72 L 109.35 12.63 L 103.152 12.63 L 103.152 9.203 L 110.682 9.203 L 110.682 6.084 L 99.497 6.084 Z M 28.868 7.268 L 28.868 21.456 C 28.868 25.47 25.598 28.723 21.564 28.723 L 7.304 28.723 C 3.27 28.723 0 25.47 0 21.456 L 0 7.268 C 0 3.253 3.27 0 7.304 0 L 21.564 0 C 25.598 0 28.868 3.253 28.868 7.268 Z M 21.941 6.434 C 16.971 6.434 15.13 9.964 13.649 12.8 L 12.682 14.614 C 11.114 17.622 9.943 19.45 6.924 19.45 C 6.136 19.45 5.497 20.086 5.497 20.87 C 5.498 21.654 6.136 22.289 6.924 22.29 C 11.895 22.29 13.737 18.76 15.217 15.924 L 16.182 14.109 C 17.752 11.102 18.924 9.274 21.941 9.274 C 22.729 9.274 23.368 8.638 23.37 7.853 C 23.368 7.068 22.729 6.433 21.941 6.434 Z" fill="hsl(0, 0%, 100%)"></path></svg>