<svg xmlns="http://www.w3.org/2000/svg" xmlns:xlink="http://www.w3.org/1999/xlink" viewBox="0 0 138.281 26.216"><path d="M 50.367 26.263 L 49.934 25.142 L 48.547 25.142 L 48.142 26.263 L 47.419 26.263 L 48.893 22.375 L 49.543 22.375 L 51.118 26.263 Z M 49.717 24.559 L 49.385 23.671 C 49.327 23.511 49.269 23.366 49.226 23.235 C 49.196 23.363 49.157 23.49 49.11 23.613 L 48.749 24.574 L 49.717 24.574 Z M 56.406 26.263 L 56.406 23.643 L 55.51 26.263 L 54.933 26.263 L 54.037 23.599 L 54.037 26.263 L 53.372 26.263 L 53.372 22.375 L 54.268 22.375 L 55.15 25.055 C 55.179 25.156 55.207 25.243 55.236 25.317 C 55.265 25.229 55.293 25.127 55.337 25.01 L 56.233 22.375 L 57.042 22.375 L 57.042 26.263 Z M 61.246 26.321 C 60.9 26.321 60.611 26.263 60.379 26.176 C 60.143 26.082 59.945 25.913 59.816 25.695 C 59.684 25.479 59.61 25.234 59.599 24.982 L 59.599 24.894 L 60.235 24.836 L 60.249 24.923 C 60.264 25.098 60.307 25.229 60.379 25.331 C 60.452 25.433 60.553 25.52 60.712 25.579 C 60.871 25.651 61.044 25.681 61.232 25.681 C 61.406 25.681 61.565 25.651 61.694 25.607 C 61.803 25.573 61.898 25.507 61.969 25.419 C 62.025 25.343 62.056 25.251 62.056 25.156 C 62.056 25.066 62.025 24.979 61.969 24.909 C 61.911 24.836 61.81 24.778 61.68 24.72 C 61.579 24.676 61.377 24.618 61.044 24.545 C 60.698 24.458 60.452 24.385 60.321 24.312 C 60.149 24.221 60.001 24.091 59.888 23.933 C 59.79 23.781 59.74 23.604 59.744 23.424 C 59.744 23.22 59.802 23.031 59.917 22.856 C 60.033 22.682 60.206 22.536 60.423 22.449 C 60.64 22.361 60.871 22.318 61.131 22.318 C 61.406 22.318 61.665 22.361 61.882 22.463 C 62.114 22.565 62.287 22.696 62.402 22.885 C 62.518 23.074 62.59 23.279 62.605 23.511 L 62.605 23.599 L 61.954 23.643 L 61.94 23.555 C 61.911 23.351 61.839 23.191 61.723 23.089 C 61.594 22.987 61.406 22.929 61.145 22.929 C 60.871 22.929 60.683 22.972 60.567 23.074 C 60.452 23.162 60.394 23.264 60.394 23.395 C 60.394 23.497 60.437 23.584 60.51 23.657 C 60.567 23.715 60.727 23.788 61.203 23.904 C 61.594 23.992 61.882 24.079 62.027 24.152 C 62.258 24.254 62.431 24.399 62.532 24.559 C 62.648 24.72 62.706 24.923 62.706 25.142 C 62.706 25.36 62.648 25.564 62.518 25.753 C 62.402 25.943 62.229 26.088 61.998 26.19 C 61.758 26.281 61.503 26.325 61.246 26.321 M 66.202 26.263 L 66.202 23.002 L 64.989 23.002 L 64.989 22.375 L 68.095 22.375 L 68.095 23.002 L 66.881 23.002 L 66.881 26.263 Z M 70.508 26.263 L 70.508 22.375 L 73.354 22.375 L 73.354 23.002 L 71.187 23.002 L 71.187 23.948 L 73.209 23.948 L 73.209 24.574 L 71.187 24.574 L 71.187 25.637 L 73.441 25.637 L 73.441 26.263 Z M 78.686 26.263 L 78.165 25.448 C 78.062 25.275 77.946 25.109 77.819 24.953 C 77.732 24.851 77.66 24.763 77.602 24.72 C 77.546 24.679 77.482 24.649 77.414 24.632 C 77.385 24.632 77.313 24.618 77.169 24.618 L 76.706 24.618 L 76.706 26.263 L 76.027 26.263 L 76.027 22.375 L 77.747 22.375 C 78.079 22.375 78.339 22.405 78.527 22.477 C 78.715 22.551 78.873 22.682 78.974 22.871 C 79.09 23.046 79.134 23.249 79.134 23.482 C 79.134 23.774 79.047 24.007 78.859 24.21 C 78.701 24.369 78.501 24.481 78.281 24.53 C 78.31 24.559 78.339 24.574 78.368 24.603 C 78.512 24.735 78.657 24.909 78.787 25.112 L 79.523 26.263 Z M 77.645 24.007 C 77.848 24.007 78.021 23.992 78.136 23.948 C 78.238 23.904 78.324 23.846 78.368 23.759 C 78.425 23.678 78.455 23.581 78.455 23.482 C 78.455 23.344 78.397 23.212 78.295 23.118 C 78.194 23.016 78.007 22.972 77.761 22.972 L 76.691 22.972 L 76.691 24.007 Z M 81.821 26.263 L 81.821 22.375 L 83.179 22.375 C 83.468 22.375 83.699 22.39 83.858 22.434 C 84.075 22.492 84.277 22.58 84.436 22.725 C 84.638 22.9 84.797 23.118 84.899 23.395 C 85 23.657 85.043 23.963 85.043 24.312 C 85.043 24.603 85.014 24.865 84.942 25.084 C 84.882 25.284 84.794 25.475 84.682 25.651 C 84.584 25.793 84.462 25.916 84.321 26.015 C 84.191 26.102 84.031 26.176 83.858 26.219 C 83.685 26.263 83.468 26.292 83.251 26.292 L 81.821 26.292 Z M 83.179 25.637 C 83.41 25.637 83.584 25.622 83.714 25.579 C 83.821 25.541 83.92 25.482 84.003 25.404 C 84.104 25.302 84.191 25.156 84.249 24.982 C 84.306 24.792 84.335 24.559 84.335 24.297 C 84.335 23.933 84.277 23.643 84.162 23.453 C 84.046 23.264 83.916 23.133 83.743 23.074 C 83.627 23.031 83.425 23.002 83.15 23.002 L 82.5 23.002 L 82.5 25.637 Z M 90.129 26.263 L 89.695 25.142 L 88.294 25.142 L 87.89 26.263 L 87.167 26.263 L 88.641 22.375 L 89.291 22.375 L 90.866 26.263 Z M 89.478 24.559 L 89.146 23.671 C 89.089 23.511 89.031 23.366 88.987 23.235 C 88.957 23.364 88.919 23.49 88.871 23.613 L 88.511 24.574 L 89.478 24.574 Z M 96.168 26.263 L 96.168 23.643 L 95.258 26.263 L 94.68 26.263 L 93.784 23.599 L 93.784 26.263 L 93.134 26.263 L 93.134 22.375 L 94.03 22.375 L 94.926 25.055 C 94.955 25.156 94.984 25.243 95.013 25.317 C 95.042 25.229 95.085 25.127 95.114 25.01 L 96.009 22.375 L 96.818 22.375 L 96.818 26.263 Z M 16.413 16.786 L 14.896 5.634 L 9.478 16.786 L 8.9 16.786 L 3.41 5.562 L 1.892 16.786 L 0.087 16.786 L 2.384 0.422 L 2.861 0.422 L 9.189 13.423 L 15.474 0.422 L 15.937 0.422 L 18.262 16.786 Z M 62.229 16.786 L 60.712 5.634 L 55.293 16.786 L 54.701 16.786 L 49.211 5.562 L 47.708 16.786 L 45.888 16.786 L 48.199 0.422 L 48.677 0.422 L 55.005 13.423 L 61.275 0.422 L 61.752 0.422 L 64.064 16.786 Z M 133.402 17.222 C 132.443 17.232 131.505 16.947 130.714 16.407 C 129.92 15.883 129.168 14.98 128.504 13.743 L 128.432 13.626 L 130.021 12.651 L 130.093 12.782 C 131.003 14.5 132.073 15.359 133.243 15.359 C 133.748 15.359 134.225 15.242 134.673 14.995 C 135.106 14.762 135.453 14.427 135.685 14.034 C 135.911 13.65 136.031 13.213 136.031 12.767 C 136.031 12.258 135.857 11.763 135.526 11.268 C 135.049 10.569 134.139 9.71 132.853 8.72 C 131.509 7.687 130.7 6.959 130.367 6.493 C 129.79 5.721 129.5 4.862 129.5 3.945 C 129.5 3.217 129.674 2.548 130.021 1.966 C 130.359 1.369 130.86 0.88 131.465 0.553 C 132.087 0.204 132.766 0.044 133.489 0.044 C 134.254 0.044 134.977 0.233 135.656 0.626 C 136.335 1.019 137.014 1.704 137.765 2.737 L 137.852 2.853 L 136.335 4.018 L 136.248 3.901 C 135.67 3.115 135.164 2.606 134.76 2.358 C 134.37 2.116 133.919 1.989 133.46 1.994 C 132.853 1.994 132.375 2.169 132 2.548 C 131.624 2.912 131.437 3.363 131.437 3.901 C 131.437 4.222 131.509 4.557 131.639 4.862 C 131.769 5.168 132.029 5.518 132.39 5.882 C 132.535 6.027 132.997 6.42 134.413 7.469 C 135.785 8.502 136.753 9.433 137.259 10.249 C 137.78 11.064 138.039 11.909 138.039 12.739 C 138.039 13.932 137.592 14.995 136.696 15.883 C 135.785 16.771 134.687 17.222 133.402 17.222 Z M 81.489 16.786 L 79.003 11.501 L 72.371 11.501 L 69.901 16.786 L 67.821 16.786 L 75.435 0.422 L 76.012 0.422 L 83.512 16.786 Z M 78.18 9.666 L 75.71 4.324 L 73.224 9.652 L 78.18 9.652 Z M 108.68 16.786 L 101.774 0.422 L 103.811 0.422 L 108.955 12.622 L 114.185 0.422 L 116.223 0.422 L 109.215 16.786 Z M 121.539 0.422 L 123.432 0.422 L 123.432 16.786 L 121.539 16.786 Z M 31.411 16.786 L 25.054 7.6 L 25.054 16.786 L 23.189 16.786 L 23.189 0.422 L 26.484 0.422 C 28.275 0.422 29.461 0.495 30.082 0.641 C 31.016 0.841 31.852 1.355 32.451 2.096 C 33.058 2.839 33.361 3.756 33.361 4.834 C 33.361 5.736 33.144 6.536 32.74 7.221 C 32.321 7.905 31.714 8.429 30.934 8.779 C 30.226 9.099 29.576 9.274 28.362 9.317 L 33.737 16.786 Z M 27.625 7.614 C 28.651 7.614 29.417 7.512 29.908 7.308 C 30.375 7.127 30.767 6.793 31.02 6.362 C 31.281 5.925 31.425 5.43 31.425 4.906 C 31.425 4.382 31.295 3.901 31.02 3.479 C 30.772 3.067 30.397 2.746 29.951 2.563 C 29.504 2.373 28.753 2.286 27.683 2.286 L 25.039 2.286 L 25.039 7.585 Z M 96.212 16.8 L 89.854 7.614 L 89.854 16.8 L 87.991 16.8 L 87.991 0.422 L 91.285 0.422 C 93.076 0.422 94.261 0.495 94.882 0.641 C 95.816 0.841 96.653 1.355 97.252 2.096 C 97.859 2.839 98.162 3.756 98.162 4.834 C 98.162 5.736 97.946 6.536 97.541 7.221 C 97.122 7.905 96.515 8.429 95.735 8.779 C 95.027 9.099 94.377 9.274 93.163 9.317 L 98.538 16.786 L 96.212 16.786 Z M 92.426 7.614 C 93.452 7.614 94.218 7.512 94.709 7.308 C 95.176 7.126 95.568 6.793 95.822 6.362 C 96.081 5.925 96.226 5.43 96.226 4.906 C 96.226 4.382 96.096 3.901 95.822 3.479 C 95.573 3.067 95.198 2.746 94.752 2.563 C 94.305 2.373 93.553 2.286 92.484 2.286 L 89.84 2.286 L 89.84 7.585 Z" fill="hsl(0, 0%, 100%)"></path></svg>