<svg xmlns="http://www.w3.org/2000/svg" xmlns:xlink="http://www.w3.org/1999/xlink" viewBox="0 0 76.977 38.634"><path d="M 57.427 31.8 L 57.427 28.862 L 59.093 28.862 C 61.273 28.862 61.4 26.819 61.4 26.819 L 56.962 14.394 L 53.127 14.394 L 53.127 27.407 L 49.654 27.407 L 49.654 11.732 C 49.654 9.8 50.268 8.439 51.495 7.651 C 52.722 6.862 54.404 6.467 56.542 6.467 C 56.64 6.467 56.789 6.472 56.987 6.482 C 57.184 6.492 57.333 6.497 57.432 6.497 L 57.432 9.041 C 57.234 9.018 57.036 9.008 56.838 9.011 C 56.383 9.011 56.006 9.021 55.71 9.041 C 55.377 9.067 55.048 9.132 54.73 9.233 C 54.375 9.341 54.093 9.484 53.884 9.661 C 53.676 9.839 53.499 10.105 53.35 10.46 C 53.202 10.815 53.127 11.239 53.127 11.732 L 57.432 11.732 L 57.432 11.742 L 59.427 11.732 L 63.306 22.477 L 67.948 11.732 L 71.655 11.732 C 71.655 11.732 65.014 26.709 64.22 28.352 C 63.109 30.653 62.169 31.8 59.734 31.8 Z M 5.278 27.407 L 5.278 17.647 C 5.278 15.577 5.802 14.073 6.851 13.136 C 7.9 12.2 9.493 11.732 11.63 11.732 L 15.966 11.732 L 15.966 14.394 L 12.521 14.394 C 11.155 14.394 10.186 14.729 9.612 15.399 C 9.038 16.07 8.751 17.124 8.751 18.564 L 8.751 27.407 Z M 18.19 27.407 C 15.578 27.407 14.272 25.78 14.272 22.527 C 14.272 21.009 14.598 19.816 15.252 18.948 C 15.904 18.081 16.884 17.647 18.19 17.647 L 25.315 17.647 L 25.315 16.642 C 25.315 15.143 24.582 14.394 23.118 14.394 L 18.528 14.394 L 18.528 11.732 L 24.365 11.732 C 25.81 11.732 26.908 12.156 27.66 13.004 C 28.412 13.852 28.788 14.965 28.788 16.346 L 28.788 24.745 C 28.788 26.52 27.897 27.407 26.117 27.407 Z M 31.449 27.407 L 31.449 17.647 C 31.449 15.577 31.973 14.073 33.023 13.136 C 34.072 12.2 35.665 11.732 37.802 11.732 L 40.589 11.732 L 40.589 14.394 L 38.692 14.394 C 37.326 14.394 36.357 14.729 35.783 15.399 C 35.209 16.07 34.922 17.124 34.922 18.564 L 34.922 27.407 Z M 43.061 27.407 L 43.061 11.732 L 46.534 11.732 L 46.534 27.407 Z M 19.526 24.745 L 24.424 24.745 C 25.018 24.745 25.315 24.45 25.315 23.858 L 25.315 20.309 L 19.526 20.309 C 18.418 20.309 17.864 21.048 17.864 22.527 C 17.864 24.006 18.418 24.745 19.526 24.745 Z M 43.061 9.661 L 43.061 6.467 L 46.534 6.467 L 46.534 9.661 Z" fill="hsl(0, 0%, 100%)"></path></svg>