<svg xmlns="http://www.w3.org/2000/svg" xmlns:xlink="http://www.w3.org/1999/xlink" viewBox="0 0 95.875 25.756"><path d="M 22.564 17.651 L 22.551 17.608 L 31.094 9.871 L 31.094 6.143 L 17.387 6.143 L 17.387 9.871 L 25.575 9.871 L 25.588 9.907 L 17.128 17.651 L 17.128 21.379 L 31.232 21.379 L 31.232 17.651 Z M 39.646 5.788 C 38.064 5.788 36.775 6.023 35.78 6.495 C 34.853 6.905 34.072 7.583 33.537 8.44 C 33.026 9.301 32.706 10.259 32.595 11.252 L 36.755 11.831 C 36.905 10.954 37.206 10.333 37.657 9.967 C 38.17 9.584 38.803 9.391 39.445 9.42 C 40.288 9.42 40.901 9.643 41.282 10.09 C 41.658 10.536 41.85 11.154 41.85 11.97 L 41.85 12.375 L 37.852 12.375 C 35.816 12.375 34.354 12.822 33.465 13.715 C 32.575 14.608 32.131 15.787 32.133 17.251 C 32.133 18.751 32.577 19.868 33.465 20.6 C 34.352 21.332 35.468 21.696 36.814 21.691 C 38.482 21.691 39.765 21.124 40.663 19.988 C 41.193 19.291 41.571 18.492 41.775 17.642 L 41.927 17.642 L 42.5 21.37 L 46.268 21.37 L 46.268 11.929 C 46.268 9.978 45.749 8.467 44.709 7.395 C 43.669 6.323 41.981 5.788 39.646 5.788 Z M 40.963 17.426 C 40.365 17.919 39.582 18.164 38.608 18.164 C 37.804 18.164 37.245 18.025 36.933 17.747 C 36.624 17.481 36.452 17.092 36.461 16.686 C 36.443 16.304 36.585 15.932 36.852 15.657 C 37.141 15.389 37.528 15.249 37.923 15.271 L 41.856 15.271 L 41.856 15.528 C 41.872 16.264 41.542 16.966 40.963 17.426 Z M 69.055 6.143 L 64.603 6.143 L 64.603 21.381 L 69.055 21.381 Z M 95.34 6.143 C 94.083 6.143 93.091 6.582 92.366 7.46 C 91.846 8.091 91.45 9.023 91.179 10.257 L 91.048 10.257 L 90.466 6.143 L 86.664 6.143 L 86.664 21.379 L 91.116 21.379 L 91.116 13.565 C 91.116 12.581 91.349 11.825 91.816 11.299 C 92.282 10.775 93.143 10.511 94.397 10.511 L 96.087 10.511 L 96.087 6.143 Z M 82.25 6.641 C 81.21 6.029 79.899 5.725 78.317 5.725 C 75.825 5.725 73.875 6.427 72.467 7.831 C 71.059 9.234 70.355 11.169 70.355 13.635 C 70.319 15.127 70.649 16.605 71.314 17.941 C 71.925 19.135 72.875 20.125 74.045 20.788 C 75.224 21.462 76.627 21.8 78.253 21.801 C 79.66 21.801 80.835 21.587 81.778 21.158 C 82.664 20.774 83.436 20.171 84.021 19.406 C 84.577 18.657 84.99 17.812 85.24 16.914 L 81.403 15.852 C 81.242 16.436 80.931 16.968 80.501 17.397 C 80.068 17.825 79.341 18.04 78.323 18.04 C 77.112 18.04 76.209 17.697 75.615 17.011 C 75.184 16.515 74.913 15.807 74.794 14.889 L 85.298 14.889 C 85.341 14.461 85.364 14.101 85.364 13.812 L 85.364 12.863 C 85.389 11.588 85.123 10.323 84.585 9.166 C 84.08 8.109 83.266 7.229 82.25 6.641 Z M 78.188 9.358 C 79.993 9.358 81.017 10.236 81.259 11.994 L 74.873 11.994 C 74.975 11.407 75.22 10.854 75.588 10.384 C 76.174 9.698 77.04 9.356 78.188 9.358 Z M 66.876 0.002 C 66.2 -0.022 65.544 0.228 65.055 0.693 C 64.575 1.162 64.315 1.81 64.34 2.479 C 64.315 3.151 64.574 3.804 65.056 4.279 C 65.538 4.756 66.197 5.012 66.876 4.986 C 67.551 5.012 68.205 4.755 68.681 4.279 C 69.152 3.798 69.404 3.148 69.378 2.479 C 69.409 1.813 69.156 1.166 68.681 0.696 C 68.203 0.224 67.55 -0.027 66.878 0.003 Z M 57.68 5.725 C 56.164 5.725 54.945 6.196 54.024 7.138 C 53.342 7.837 52.843 8.878 52.524 10.264 L 52.381 10.264 L 51.799 6.149 L 47.997 6.149 L 47.997 25.76 L 52.449 25.76 L 52.449 17.683 L 52.611 17.683 C 52.748 18.221 52.938 18.745 53.18 19.245 C 53.558 20.062 54.176 20.746 54.952 21.205 C 55.758 21.64 56.666 21.857 57.583 21.833 C 59.447 21.833 60.866 21.115 61.841 19.678 C 62.816 18.242 63.303 16.238 63.303 13.667 C 63.303 11.182 62.832 9.238 61.889 7.833 C 60.945 6.428 59.542 5.725 57.68 5.725 Z M 58.131 16.767 C 57.612 17.511 56.8 17.883 55.694 17.883 C 54.77 17.926 53.882 17.525 53.307 16.805 C 52.73 16.089 52.443 15.109 52.444 13.865 L 52.444 13.574 C 52.444 12.311 52.732 11.344 53.307 10.673 C 53.881 10.002 54.677 9.67 55.694 9.677 C 56.819 9.677 57.637 10.03 58.147 10.738 C 58.657 11.444 58.912 12.43 58.912 13.695 C 58.915 15.003 58.656 16.027 58.135 16.767 Z M 15.404 17.65 L 0 17.65 L 0 21.383 L 15.404 21.383 Z" fill="hsl(0, 0%, 100%)"></path></svg>