<svg xmlns="http://www.w3.org/2000/svg" xmlns:xlink="http://www.w3.org/1999/xlink" viewBox="0 0 177 12.418"><path d="M 4.655 12.254 C 2.916 12.254 1.37 11.65 0.019 10.444 L 0.813 9.507 C 1.419 10.057 2.024 10.46 2.629 10.719 C 3.245 10.977 3.936 11.107 4.703 11.107 C 5.46 11.107 6.07 10.93 6.534 10.573 C 7 10.207 7.231 9.733 7.231 9.152 C 7.231 8.603 7.026 8.167 6.616 7.843 C 6.205 7.52 5.427 7.241 4.282 7.004 C 2.93 6.714 1.959 6.32 1.364 5.825 C 0.77 5.329 0.474 4.624 0.474 3.709 C 0.474 2.815 0.824 2.078 1.526 1.495 C 2.229 0.914 3.12 0.623 4.203 0.623 C 5.704 0.623 7.033 1.086 8.189 2.013 L 7.444 2.997 C 6.439 2.18 5.347 1.77 4.169 1.77 C 3.445 1.77 2.862 1.948 2.418 2.303 C 1.976 2.648 1.753 3.09 1.753 3.628 C 1.753 4.187 1.965 4.629 2.386 4.953 C 2.819 5.276 3.635 5.566 4.834 5.825 C 6.121 6.105 7.054 6.499 7.638 7.004 C 8.232 7.499 8.529 8.183 8.529 9.055 C 8.529 10.013 8.167 10.788 7.444 11.382 C 6.719 11.963 5.79 12.254 4.655 12.254 Z M 22.154 12.27 C 20.716 12.27 19.571 11.844 18.717 10.994 C 17.863 10.132 17.436 8.92 17.436 7.359 L 17.436 0.785 L 18.717 0.785 L 18.717 7.278 C 18.717 8.495 19.019 9.438 19.625 10.105 C 20.241 10.762 21.094 11.091 22.185 11.091 C 23.255 11.091 24.093 10.772 24.698 10.137 C 25.303 9.503 25.605 8.576 25.605 7.359 L 25.605 0.785 L 26.886 0.785 L 26.886 7.263 C 26.886 8.877 26.459 10.116 25.605 10.977 C 24.751 11.839 23.601 12.27 22.154 12.27 Z M 36.397 12.092 L 36.397 0.784 L 40.643 0.784 C 41.939 0.784 42.97 1.107 43.739 1.753 C 44.506 2.399 44.889 3.282 44.889 4.402 C 44.889 5.576 44.463 6.487 43.609 7.131 C 42.766 7.778 41.707 8.101 40.432 8.101 L 37.676 8.101 L 37.676 12.091 L 36.397 12.091 Z M 37.676 6.94 L 40.48 6.94 C 41.42 6.94 42.171 6.714 42.733 6.261 C 43.306 5.797 43.593 5.184 43.593 4.419 C 43.593 3.634 43.317 3.029 42.766 2.61 C 42.225 2.18 41.485 1.964 40.545 1.964 L 37.676 1.964 L 37.676 6.939 Z M 53.705 12.092 L 53.705 0.784 L 61.907 0.784 L 61.907 1.947 L 54.986 1.947 L 54.986 5.807 L 61.177 5.807 L 61.177 6.97 L 54.986 6.97 L 54.986 10.928 L 61.988 10.928 L 61.988 12.091 L 53.705 12.091 Z M 71.047 12.092 L 71.047 0.784 L 75.925 0.784 C 77.319 0.784 78.394 1.161 79.15 1.915 C 79.734 2.496 80.026 3.25 80.026 4.176 C 80.026 5.08 79.744 5.812 79.184 6.373 C 78.621 6.933 77.875 7.299 76.945 7.471 L 80.432 12.091 L 78.858 12.091 L 75.568 7.698 L 72.327 7.698 L 72.327 12.091 L 71.046 12.091 Z M 72.327 6.552 L 75.812 6.552 C 76.676 6.552 77.378 6.341 77.919 5.921 C 78.459 5.501 78.729 4.925 78.729 4.193 C 78.729 3.494 78.47 2.95 77.951 2.562 C 77.443 2.164 76.735 1.964 75.827 1.964 L 72.327 1.964 Z M 89.242 12.092 L 89.242 0.784 L 90.523 0.784 L 90.523 5.808 L 97.07 5.808 L 97.07 0.784 L 98.351 0.784 L 98.351 12.093 L 97.07 12.093 L 97.07 7.005 L 90.523 7.005 L 90.523 12.093 L 89.242 12.093 Z M 112.578 12.27 C 111.14 12.27 109.995 11.844 109.141 10.994 C 108.288 10.132 107.861 8.92 107.861 7.359 L 107.861 0.785 L 109.141 0.785 L 109.141 7.278 C 109.141 8.495 109.444 9.438 110.049 10.105 C 110.666 10.762 111.518 11.091 112.61 11.091 C 113.679 11.091 114.517 10.772 115.122 10.137 C 115.727 9.503 116.029 8.576 116.029 7.359 L 116.029 0.785 L 117.31 0.785 L 117.31 7.263 C 117.31 8.877 116.884 10.116 116.029 10.977 C 115.176 11.839 114.025 12.27 112.578 12.27 Z M 126.821 12.092 L 126.821 0.784 L 128.117 0.784 L 132.25 6.954 L 136.383 0.784 L 137.68 0.784 L 137.68 12.093 L 136.399 12.093 L 136.399 2.932 L 132.267 8.99 L 132.202 8.99 L 128.069 2.949 L 128.069 12.091 L 126.821 12.091 Z M 146.403 12.092 L 151.572 0.705 L 152.772 0.705 L 157.942 12.091 L 156.565 12.091 L 155.236 9.103 L 149.06 9.103 L 147.715 12.092 Z M 149.563 7.957 L 154.733 7.957 L 152.156 2.19 Z M 166.662 12.092 L 166.662 0.784 L 167.861 0.784 L 175.009 9.845 L 175.009 0.784 L 176.258 0.784 L 176.258 12.093 L 175.237 12.093 L 167.911 2.821 L 167.911 12.093 L 166.662 12.093 Z" fill="hsl(0, 0%, 100%)"></path></svg>